<?xml version="1.0" standalone="no"?>
<!DOCTYPE svg PUBLIC "-//W3C//DTD SVG 20010904//EN"
 "http://www.w3.org/TR/2001/REC-SVG-20010904/DTD/svg10.dtd">
<svg version="1.0" xmlns="http://www.w3.org/2000/svg"
 width="180.000000pt" height="180.000000pt" viewBox="0 0 180.000000 180.000000"
 preserveAspectRatio="xMidYMid meet">

<g transform="translate(0.000000,180.000000) scale(0.100000,-0.100000)"
fill="#000000" stroke="none">
<path d="M1359 1393 c-78 -109 -189 -262 -246 -340 l-102 -142 41 -30 c23 -17
46 -30 50 -29 11 4 455 662 463 687 8 27 -10 51 -40 51 -18 0 -52 -41 -166
-197z"/>
<path d="M635 1388 c-6 -12 -25 -32 -43 -44 -30 -20 -31 -23 -13 -29 11 -3 32
-20 46 -36 l25 -31 25 31 c14 16 35 33 46 36 20 7 19 8 -10 26 -17 10 -37 30
-43 44 -14 31 -20 31 -33 3z"/>
<path d="M856 1172 c-4 -12 -18 -28 -31 -35 l-25 -12 35 -28 c26 -21 36 -24
42 -14 4 7 19 20 31 29 24 16 24 16 3 23 -12 3 -27 18 -35 33 -13 25 -14 25
-20 4z"/>
<path d="M450 1067 c-8 -18 -29 -39 -47 -47 -18 -8 -33 -17 -33 -20 0 -3 13
-11 30 -17 16 -6 39 -27 51 -47 l21 -36 18 32 c9 17 33 41 54 51 l37 19 -33
17 c-18 9 -42 30 -53 48 -11 18 -22 32 -25 32 -3 0 -12 -14 -20 -32z"/>
<path d="M903 848 c-12 -13 -23 -34 -25 -48 -2 -21 -14 -29 -70 -47 -96 -33
-269 -46 -415 -33 -65 5 -128 13 -140 16 -30 8 -30 -13 1 -74 40 -80 52 -86
167 -86 l101 -1 -39 -17 c-21 -9 -57 -20 -80 -24 -24 -3 -43 -9 -43 -13 1 -11
23 -34 93 -98 48 -45 75 -63 95 -63 29 0 136 47 183 81 16 11 29 17 29 12 0
-12 -78 -94 -119 -125 l-34 -26 44 -28 c51 -32 135 -71 163 -76 24 -4 48 35
94 152 l33 85 -6 -66 c-3 -37 -14 -93 -25 -124 -11 -32 -20 -62 -20 -66 0 -11
84 -22 108 -15 51 16 74 194 53 401 -9 91 -9 110 3 117 7 4 19 21 26 38 10 24
10 33 -1 46 -17 21 -134 104 -146 104 -5 0 -19 -10 -30 -22z"/>
</g>
</svg>
